<?xml version="1.0" encoding="utf-8"?>
<!-- Generator: Adobe Illustrator 24.3.0, SVG Export Plug-In . SVG Version: 6.00 Build 0)  -->
<svg version="1.1" id="Layer_3" xmlns="http://www.w3.org/2000/svg" xmlns:xlink="http://www.w3.org/1999/xlink" x="0px" y="0px"
	 viewBox="0 0 450 450" style="enable-background:new 0 0 450 450;" xml:space="preserve">
<style type="text/css">
	.st0{fill:#FFFFFF;}
	.st1{fill:#E2E0E4;}
	.st2{fill:#8EBBE8;}
	.st3{fill:#CEDAE3;}
	.st4{fill:url(#SVGID_1_);}
	.st5{fill:#E85900;}
	.st6{fill:#EBF0FF;}
	.st7{fill:#2F3D7B;}
	.st8{fill:#2C3873;}
	.st9{fill:#FF9C78;}
	.st10{fill:#202A54;}
	.st11{enable-background:new    ;}
	.st12{clip-path:url(#SVGID_3_);enable-background:new    ;}
	.st13{fill:#292B39;}
	.st14{clip-path:url(#SVGID_5_);enable-background:new    ;}
	.st15{fill:#1E202A;}
	.st16{fill:#272937;}
	.st17{clip-path:url(#SVGID_7_);enable-background:new    ;}
	.st18{fill:#303344;}
	.st19{fill:url(#SVGID_8_);}
	.st20{fill:#191C21;}
	.st21{fill:#292D36;}
	.st22{fill:#3B4157;}
	.st23{fill:#363C53;}
	.st24{fill:#DDE8F6;}
	.st25{fill:#CBDCF1;}
	.st26{fill:#3C424F;}
	.st27{fill:#4A5161;}
	.st28{fill:#2F343E;}
	.st29{fill:#32364C;}
	.st30{fill:#2795E9;}
	.st31{fill:#3385FF;}
	.st32{fill:url(#SVGID_9_);}
	.st33{fill:url(#SVGID_10_);}
	.st34{fill:url(#SVGID_11_);}
	.st35{fill:#9CC0F8;}
	.st36{fill:#DAE6FB;}
	.st37{fill:#F6F9FE;}
	.st38{fill:#EBF2FD;}
	.st39{fill:#FF926A;}
	.st40{fill:url(#SVGID_12_);}
	.st41{fill:url(#SVGID_13_);}
	.st42{fill:url(#SVGID_14_);}
	.st43{fill:#373D4A;}
	.st44{fill:#595E71;}
	.st45{fill:#F8F7FB;}
	.st46{fill:#DDDEE2;}
	.st47{fill:url(#SVGID_15_);}
	.st48{fill:#DD9700;}
	.st49{fill:#FFD33B;}
	.st50{fill:#FFE359;}
	.st51{fill:#FFAF19;}
	.st52{fill:#00A658;}
	.st53{fill:#00D158;}
	.st54{fill:#C6C0D0;}
	.st55{fill:#D3E1FC;}
	.st56{fill:#3689F5;}
	.st57{fill:#8CD1FF;}
	.st58{opacity:0.76;enable-background:new    ;}
	.st59{opacity:0.52;enable-background:new    ;}
	.st60{opacity:0.28;}
</style>
<rect class="st0" width="450" height="450"/>
<g>
	<g>
		<g>
			<path class="st1" d="M43.12,335.8l169.81,98.04c9.5,5.48,24.9,5.48,34.4,0l159.64-92.17c9.5-5.48,9.5-14.38,0-19.86
				l-169.81-98.04c-9.5-5.48-24.9-5.48-34.4,0L43.12,315.94C33.62,321.42,33.62,330.31,43.12,335.8z"/>
			<path class="st2" d="M414.09,316.73L414.09,316.73l0-11.55l-9.24,0.45l-167.7-96.82c-9.5-5.48-24.9-5.48-34.4,0L44.67,300.08
				l-8.68-0.79v11.65h0c0.01,3.59,2.38,7.17,7.12,9.91l169.81,98.04c9.5,5.48,24.9,5.48,34.4,0l159.64-92.17
				C411.74,323.96,414.11,320.35,414.09,316.73z"/>
			<path class="st3" d="M43.12,309.26l169.81,98.04c9.5,5.48,24.9,5.48,34.4,0l159.64-92.17c9.5-5.48,9.5-14.38,0-19.86
				l-169.81-98.04c-9.5-5.48-24.9-5.48-34.4,0L43.12,289.4C33.62,294.88,33.62,303.77,43.12,309.26z"/>
		</g>
	</g>
	<g>
		<linearGradient id="SVGID_1_" gradientUnits="userSpaceOnUse" x1="79.8488" y1="306.425" x2="117.7588" y2="306.425">
			<stop  offset="0.2139" style="stop-color:#F3F4F5"/>
			<stop  offset="0.7933" style="stop-color:#E9EAED"/>
			<stop  offset="1" style="stop-color:#E4E5E9"/>
		</linearGradient>
		<path class="st4" d="M85.36,314.19c7.38,4.26,19.38,4.24,26.81-0.05c7.43-4.29,7.46-11.22,0.08-15.48
			c-7.38-4.26-19.38-4.24-26.81,0.05C78.02,303,77.98,309.93,85.36,314.19z"/>
		<path class="st5" d="M104.93,108.96c0,0,9.07-5.29,13.18,2.4c4.11,7.69-4.84,17.64-1.16,22.41c3.68,4.77,10.84,5.43,10.84,5.43
			s-0.53,9.55-15.25,11.54C97.83,152.73,96.39,114.92,104.93,108.96z"/>
		<path class="st6" d="M106.59,106.31c4.46,0.31,6.6,4.91,6.6,9c0,4.09-9.95,5.24-10.57,3.37
			C101.99,116.82,106.59,106.31,106.59,106.31z"/>
		<g>
			<path class="st7" d="M100.34,286.22c2.38,1.3,3,3.37,2.54,6.97c-0.29,2.25-0.32,1.91-0.65,4.06c-0.33,2.15-0.07,4.2-0.61,4.69
				c-0.53,0.49-1.73,0-1.73,0s-0.59-3.12-0.71-3.37c-0.12-0.25-1.91,0.28-3.62,3.79c-1.7,3.51-5.39,7.05-12.4,7.27
				c-1.97,0.18-4.13-0.55-4.15-2.19c-0.03-1.82,5.42-6.81,7.51-9.17c2.09-2.35,3.51-5.9,5.93-8.21c2.42-2.31,1.58-4.1,2.69-4.44
				C96.26,285.28,100.34,286.22,100.34,286.22z"/>
			<path class="st7" d="M112.43,291.63c2.03,4.15,2.61,6.05,2.07,8.33c-0.54,2.28-0.87,2.2-0.7,5.6c0.17,3.4-0.53,4.1-0.53,4.1
				s-0.47,0.29-0.8,0.21c-0.33-0.08-1.33-0.54-1.33-0.54s0.46-5.31,0.08-5.47c-0.37-0.17-2.05,7.1-5.31,9.45
				c-3.75,2.72-9.06,3.86-11.09,2.01c-1.18-3.46,1.76-6.69,3.09-9.14c0.66-1.22,3.14-5.33,4.93-8.4c1.81-3.11,2.93-5.16,4.62-5.85
				C110.83,290.56,112.43,291.63,112.43,291.63z"/>
			<path class="st8" d="M89.15,135.76c-3.04-1.6-6.91,1.4-8.68,5.45c-0.98,2.24-3.4,7.38-6.08,16.21c-0.79,2.6-2.9,12.27-4.79,14.47
				c-1.89,2.2,0.97,11.26,4.44,11.17c3.47-0.09,7.34-13.41,9.76-15.04C86.22,166.39,89.15,135.76,89.15,135.76z"/>
			<path class="st9" d="M75.49,177.73c-0.4-3.47-3.39-5.77-5.37-6.23c-1.98-0.46-5.63-0.17-6.57-0.81c-0.95-0.64-2.68-3.69-3.06-4.2
				c-0.37-0.51-4.05-2.07-5.1-3.25c-1.06-1.19-3.08-0.75-2.7,0.37c0.37,1.12-0.05,8.73-0.05,8.73s2.44,3.91,3.85,4.11
				c1.41,0.2,2.35,0.04,3.52-0.44c1.17,0.04,1.12,0.15,1.61,0.79c0.48,0.64,5.25,7.83,12.42,6.24
				C75.5,182.32,76.06,179.99,75.49,177.73z"/>
			<path class="st9" d="M81.58,223.12c0.23,2.93,4.93,25.45,5.16,27.32c0.23,1.88,6.45,36.82,5.39,39.64
				c-1.05,2.81-1.76,4.16-1.76,4.16s4.23,0.28,7.4-1.54c3.17-1.82,4.17-4.33,4.17-4.33s-1.02-14.41,0.09-21.39
				c1.11-6.98-2.93-37-2.93-37L81.58,223.12z"/>
			<path class="st9" d="M92.23,288.15c0.01,2.44-3.76,7.88-4.92,10.57c-1.16,2.7,5.51,0.59,7.25-1.69c1.74-2.29,4.94-3.24,6.64-5.4
				c1.7-2.16,0.21-6.21,0.21-6.21L92.23,288.15z"/>
			<path class="st8" d="M81.58,192.87c-1.51,8.17-1.68,18.59-1.01,26.4c0.66,7.8,5.04,29.02,5.48,31.57
				c0.44,2.55,4.97,35.04,5.25,37.19c0.28,2.15,10.43,1.46,10.72-3.79c0.29-5.25-0.29-17.79,1.97-24.36
				c2.26-6.56-0.22-57.75-5.91-61.76C92.39,194.11,81.58,192.87,81.58,192.87z"/>
			<path class="st9" d="M96.62,237.82c0-0.12,1.41,9.85,1.76,13.02c0.35,3.17,1.76,6.33,2.58,7.62c0.82,1.29,4.55,19.96,4.09,27.92
				c-0.46,7.96-0.93,10.89-0.93,10.89s8.68,1.99,8.79-1.88c0.12-3.87,0.7-7.62,2.11-14.54c1.41-6.92,2.46-13.02,0.94-19.11
				c-1.52-6.1-1.88-7.27-1.88-7.27s-0.82-17.36-1.17-18.41C112.57,235,96.62,237.82,96.62,237.82z"/>
			<path class="st9" d="M113,293.79c0,0,0.68,2.19-1.69,4.55c-2.36,2.36-6.18,8.8-9.95,8.02c-3.77-0.79,2.01-6.34,3.2-13.01
				c0.38-2.14,0.31-3.93,0.31-3.93L113,293.79z"/>
			<path class="st7" d="M116.01,191.86c4.96,15.81,4.23,23.03,1.75,37.91c-2.48,14.88-2.59,23.19-2.37,25.27
				c0.22,2.08,2.55,8.09,1.33,18.7c-1.22,10.61-2.22,16.49-2.97,18.27c-0.75,1.78-10.28,5.01-9.84-0.78
				c0.44-5.79-1.64-27.66-3.28-31.27c-1.64-3.61-3.19-9.19-4-14.55c-0.81-5.36-3.33-21.66-3.33-26.36c0-4.7-3.38-6.23-4.15-10.5
				c-0.77-4.27,0.98-21.31,0.98-21.31L116.01,191.86z"/>
			<path class="st10" d="M102.76,202.86c-3.92,0.43-7.93,0.22-11.76-0.79c-1.98-0.52-3.85-1.28-5.67-2.2
				c-1.66-0.84-3.16-1.39-4.26-3.03c-1.38-2.05-1.42-4.66-1.27-7.04c0.15-2.34,0.11-4.72-0.26-7.07c-0.7-4.39-1.68-8.74-2.25-13.16
				c-0.75-5.8,0.18-14.07,2.07-18.73c1.89-4.66,4.42-12.14,7.67-14.62c1.69-1.29,4.44-0.7,6.6-1.76c2.15-1.06,4.77,1.21,8.6,2.05
				c3.83,0.84,6.99,0.79,9.85,2.24c2.86,1.45,10.2,8.66,10.77,10.38c0.57,1.72-3.03,19.57-4.79,28.85
				c-1.07,5.65,2.09,15.43-2.06,19.93c-2.45,2.66-6.11,3.82-9.57,4.45C105.2,202.55,103.98,202.73,102.76,202.86z"/>
			<path class="st6" d="M112.32,139.53c0,0,2.53,1.97-2.64,4.92c-5.17,2.95-22.45,28.09-22.45,28.09s-0.15-19.61,1.92-25.58
				c2.07-5.96,1.74-10.77,7.81-10.23C103.03,137.29,112.32,139.53,112.32,139.53z"/>
			<path class="st8" d="M87.22,177.47l18.93-20.71l-1.97-3.28l6.67-1.15c0,0,4.64-4.91,4.98-7.71c0.34-2.8-0.62-4.89-3.76-5.89
				c0.26,2.06-0.95,3.92-0.95,3.92s-5.09,3.83-8.26,7.49c-3.17,3.66-16.24,23.13-16.24,23.13L87.22,177.47z"/>
			<path class="st8" d="M92.97,137.56c-2.44,4.7-5.03,13.56-5.03,20.51s-0.93,23.22-0.71,24.43c0.22,1.22-2.73-15.01-3.22-18.93
				c-0.49-3.92-1.31-11.79-1.31-11.79l3.17-0.71l-2.46-2.68c0,0,6.51-11.7,7.22-12.03C91.33,136.03,92.97,137.56,92.97,137.56z"/>
			<path class="st8" d="M108.76,184.78c-0.05-1.62-0.26-2.61,0.32-5.42c0.59-2.81,2.9-15.6,4.08-18.91c1.17-3.31,2.9-8.36,5.75-9.94
				c2.84-1.58,3.49-1.61,3.94-1.41c0.45,0.21,1.33,1.47,1.57,6.71c0.23,5.25,0.29,8.89-0.97,14.52c-1.26,5.62-3.89,19.56-9.55,23.66
				C109.17,193.08,108.76,184.78,108.76,184.78z"/>
			<path class="st9" d="M92.38,132.81c1.23,2.45,2.39,7.42,1.96,9.94c-0.43,2.52,2.88,3.68,5.77,3.5c2.88-0.18,12.33-6.3,12.21-6.71
				c-0.12-0.41-4.05-1.33-4.6-4.7c-0.55-3.37-1.23-6.32-0.61-8.34c0.61-2.02,1.9-8.22-3.68-9.88c-5.58-1.66-10.43,2.7-10.43,2.7
				L92.38,132.81z"/>
			<path class="st9" d="M105.14,121.21c0.12,3.25,0.15,11.2-0.86,12.85c-1.01,1.66-9.45,6.01-11.53,6.1
				c-2.09,0.09-2.94-0.12-3.83-1.81c-0.89-1.69-3.53-6.9-4.14-10.77c-0.61-3.87-0.4-5.46,0-8.59c0.4-3.13,0.58-5.15,1.87-6.14
				c1.29-0.98,7.79-2.82,12.52-1.78C103.88,112.13,105.14,121.21,105.14,121.21z"/>
			<path class="st5" d="M89.13,114.8c2.05,0.64,4.11-1.04,6.32,0.28c2.21,1.32,2.7,4.88,4.2,5.95c1.5,1.07,2.76,2.12,3.16,3.68
				c0.4,1.56,0.88,6.94-0.15,9.2c1.81-3.77,2.21-7.45,2.67-8.62c0.46-1.17,0.82-2.14,2.34-1.96c1.52,0.18-0.66,4.62-0.78,5.82
				c-0.12,1.2,0.46,3.48,0.46,3.48s0.22-2.12,1.6-3.93c1.38-1.81,3.1-5.55,2.91-8.8c-0.18-3.25,0.37-9.45-4.85-13.56
				c-5.22-4.11-9.57-2.91-13.71-1.53c-4.14,1.38-6.93,3.34-8.5,7.88c-1.56,4.54,0.04,5.73,0.04,5.73s0.69-3.53,1-3.99
				C86.15,113.97,86.86,113.72,89.13,114.8z"/>
			<path class="st9" d="M105.62,127.21c0.03-1.14,0.18-3.81,1.82-4.31c1.64-0.5,2.32,0.5,2.23,1.55c-0.09,1.06,0.06,2.49-1.7,3.9
				c-1.76,1.41-2.08,1.09-2.35,0.44C105.36,128.14,105.62,127.21,105.62,127.21z"/>
			<g>
				<g class="st11">
					<g class="st11">
						<defs>
							<path id="SVGID_2_" class="st11" d="M84.45,198.46l1.63-1.48c0.07-0.06,0.08-0.17,0.04-0.33l-1.63,1.48
								C84.53,198.29,84.52,198.4,84.45,198.46z"/>
						</defs>
						<clipPath id="SVGID_3_">
							<use xlink:href="#SVGID_2_"  style="overflow:visible;"/>
						</clipPath>
						<g class="st12">
							<path class="st13" d="M86.11,196.65l-1.63,1.48c0.05,0.16,0.03,0.27-0.04,0.33l1.63-1.48
								C86.14,196.92,86.16,196.81,86.11,196.65L86.11,196.65z"/>
						</g>
					</g>
					<g class="st11">
						<defs>
							<path id="SVGID_4_" class="st11" d="M49.15,147.35l-1.63,1.48c0.09-0.08,0.26-0.06,0.49,0.07l1.63-1.48
								C49.42,147.29,49.24,147.27,49.15,147.35z"/>
						</defs>
						<clipPath id="SVGID_5_">
							<use xlink:href="#SVGID_4_"  style="overflow:visible;"/>
						</clipPath>
						<g class="st14">
							<path class="st13" d="M49.15,147.35l-1.63,1.48c0.09-0.08,0.26-0.06,0.49,0.07l1.63-1.48
								C49.42,147.29,49.24,147.27,49.15,147.35L49.15,147.35z"/>
						</g>
					</g>
					<g>
						<polygon class="st15" points="76.64,163.58 75.02,165.06 84.49,198.13 86.11,196.65 						"/>
					</g>
					<g>
						<polygon class="st16" points="49.65,147.42 48.02,148.91 74.1,163.96 75.73,162.48 						"/>
					</g>
					<g class="st11">
						<defs>
							<path id="SVGID_6_" class="st11" d="M75.73,162.48l-1.63,1.48c0.4,0.23,0.81,0.72,0.92,1.1l1.63-1.48
								C76.54,163.2,76.12,162.71,75.73,162.48z"/>
						</defs>
						<clipPath id="SVGID_7_">
							<use xlink:href="#SVGID_6_"  style="overflow:visible;"/>
						</clipPath>
						<g class="st17">
							<path class="st13" d="M75.73,162.48l-1.63,1.48c0.4,0.23,0.81,0.72,0.92,1.1l1.63-1.48
								C76.54,163.2,76.12,162.71,75.73,162.48L75.73,162.48z"/>
						</g>
					</g>
					<g>
						<path class="st18" d="M57.88,183.34l26.08,15.06c0.4,0.23,0.63,0.11,0.53-0.27l-9.47-33.07c-0.11-0.38-0.52-0.87-0.92-1.1
							l-26.08-15.06c-0.4-0.23-0.64-0.12-0.53,0.26l9.47,33.07C57.07,182.61,57.48,183.1,57.88,183.34z"/>
					</g>
				</g>
			</g>
			<path class="st9" d="M53.57,168.3c0,0,2.44-0.35,3.08-0.33c0.64,0.02,1.5,0.42,1.41,1.08c-0.09,0.66-0.46,1.06-0.46,1.06
				s1.14-0.55,1.39-0.55c0.24,0,0.79,0.86,0.7,1.32c-0.09,0.46-0.09,0.46-0.09,0.46s0.66,0.09,0.55,0.73
				c-0.11,0.64-1.45,1.83-1.45,1.83s-1.78,1.87-2.44,2.33c-0.66,0.46-1.19,0.7-1.87,0.51c-0.68-0.2-1.19-1.17-1.41-1.68
				c-0.22-0.52-1.25-1.26-1.25-1.26l-0.29-1.67c0,0-0.81-0.53-0.88-0.92c-0.07-0.4,0.48-1.3,0.29-1.91
				c-0.2-0.62-0.44-1.14-0.42-1.72c0.02-0.57,0.18-1.14,0.75-1.89c0.57-0.75,2.24-1.17,2.24-1.17s1.1,0.7,0.79,1.25
				c-0.31,0.55-1.18,0.94-1.37,1.34c-0.19,0.4-0.39,1.3-0.39,1.3L53.57,168.3z"/>
			<path class="st9" d="M82.3,172.37c-1.01-0.22-4.16-0.93-4.85-0.93c-0.69,0-1.97-0.24-1.97-0.24s-1.03-0.97-1.61-0.86
				c-0.57,0.11-0.53,0.56-0.42,1.01c0.11,0.44,0.92,1.61,1.89,1.98c0.97,0.37,1.73,0.29,1.96,0.31c0.22,0.02,2.48,0.51,3.17,1.82
				c-1.21-0.09-2.29-0.29-2.29-0.29s-2.24-0.62-2.64-0.81c-0.4-0.2-3.63-1.94-4.24-2.02c-0.62-0.09-0.86,0.24-0.84,1.06
				c-0.4,0.55-0.18,1.25-0.18,1.25l0.68,1.25c0,0,0.07,1.08,0.35,1.76c0.29,0.68,1.78,2.59,1.78,2.59s0.07,0.57,0.2,0.99
				c0.13,0.42,4.95,3.65,5.5,3.89c0.55,0.24,4.79-0.09,5.72-0.35c0.92-0.26,2.44,0.09,2.44,0.09s10.03,6.18,14.56,8.03
				c4.53,1.85,8.62,2.15,11.83,1.36c3.21-0.79-1.23-10.16-2.77-10.73c-1.54-0.57-2.59-0.22-6.86-1.03
				c-4.27-0.82-15.52-5.17-16.31-5.92C86.61,175.84,83.62,172.9,82.3,172.37z"/>
			<path class="st8" d="M89.91,183.28c0.69-3.75,2.84-4.92,3.28-4.92c0.44,0,17.23,3.37,18.63,4.69c1.39,1.32,4.29,7.63,2.67,10.47
				c-1.61,2.84-6.04,1.72-9.38,1.16c-3.34-0.56-15.2-7.81-15.2-7.81S89.36,186.25,89.91,183.28z"/>
		</g>
	</g>
	<g>
		<g>
			<g>
				<linearGradient id="SVGID_8_" gradientUnits="userSpaceOnUse" x1="323.1747" y1="307.3827" x2="386.9153" y2="307.3827">
					<stop  offset="0.2139" style="stop-color:#F3F4F5"/>
					<stop  offset="0.7933" style="stop-color:#E9EAED"/>
					<stop  offset="1" style="stop-color:#E4E5E9"/>
				</linearGradient>
				<path class="st19" d="M323.32,315.6c1.69,7.56,17.26,10.02,34.78,5.48c17.52-4.54,30.35-14.35,28.67-21.91
					c-1.69-7.56-17.26-10.02-34.78-5.48C334.47,298.22,321.64,308.03,323.32,315.6z"/>
				<path class="st20" d="M384.49,297.51c0.7,0.31,0.7,0.59,0.7,1.7c0,1.11-0.24,2.52-3.1,3.71c-2.86,1.18-6.11,0.5-8.52-0.89
					c-2.42-1.39-2.59-2.49-5.69-4.17c-3.1-1.68-2.86-0.21-5.16-1.19c-2.29-0.98-4.3-1.98-4.51-3.48c-0.21-1.49,0.08-2.83,0-3.19
					s1.93-0.72,1.93-0.72L384.49,297.51z"/>
				<path class="st21" d="M369.61,283.98c1.28,2.82,10.52,8.15,12.98,9.74c2.46,1.58,2.3,3.11,2.28,4.66
					c-0.01,1.26-2.66,4.63-7.67,3.49c-5.01-1.14-7.21-4.84-9.79-5.63c-2.59-0.79-8.75-2.37-8.84-6.85
					c-0.09-4.48,1.23-9.94,1.23-9.94L369.61,283.98z"/>
				<path class="st20" d="M347.52,318.16c0.71,0.79,0.77,1.53,0.77,2.38c0,0.85-0.42,1.62-2.57,2.51c-2.14,0.89-5.05,1.38-7.7,0.4
					c-3.69-1.36-6.77-3.54-8.15-5.62c-1.38-2.09-1.2-3.36-2.05-3.94c-0.85-0.58-2.7-1.12-2.78-3.28c-0.08-2.16,0.07-2.33,0.23-2.73
					c0.3-0.73,1.38-0.5,2.31-0.28C328.51,307.81,347.52,318.16,347.52,318.16z"/>
				<path class="st21" d="M335.58,299.85c2.01,2.05,2.44,0.1,3.16,2.96c1.63,6.46,7.64,9.43,8.78,12.91
					c0.48,1.45,0.53,1.79,0.44,3.51c-0.04,0.73-0.49,1.38-1.15,1.68c-4.58,2.07-7.6,1.34-7.6,1.34s-2.41-0.89-4.93-2.57
					c-2.17-1.45-4.41-3.48-5.26-6.04c-0.38-1.15-0.53-1.24-1.14-1.5c-1.1-0.79-2.62-1.08-2.56-3.73c0.08-3.09,0.36-9.16,0.95-10.78
					c0.39-1.07,4.28-1.55,4.28-1.55L335.58,299.85z"/>
				<path class="st22" d="M355.04,202.82c0,0,0.19,6.71,0.49,14.7c0.33,8.82,0.8,19.21,1.3,23.87c0.08,0.73,0.16,1.32,0.24,1.74
					c0.89,4.66,1.59,7.14,4.3,8.91c0.51,0.33,1.1,0.64,1.77,0.94c4.22,1.84,10-1.83,10.79-3.94c0.8-2.11,1.71-24.88,2.32-38.25
					c0.62-13.37,0.59-9.9-0.37-21.25L355.04,202.82z"/>
				<path class="st22" d="M358.35,283.9c0.13,2.16,1.71,3.38,3.68,3.94c3.41,1,7.99,0.06,8.32-1.29c0.53-2.11,0.62-27.08,3.59-37.52
					c0,0-7.66-6.32-12.76-8.31c-2.1-0.82-3.76-0.92-4.28,0.48c-0.02,0.06-0.04,0.12-0.07,0.19
					C355.15,246.59,355.92,271.66,358.35,283.9z"/>
				<path class="st23" d="M356.83,241.39c-1.68,5.2-0.91,30.27,1.52,42.51c0.13,2.16,1.71,3.38,3.68,3.94
					c-0.46-6.96-0.95-13.91-1.38-18.77c-0.96-10.73,0.38-19.52,0.53-22.5c0.43-7.92-0.26-24.57,4.09-27.87l-9.73-1.18
					C355.87,226.34,356.33,236.73,356.83,241.39z"/>
				<path class="st22" d="M332.44,223.66c0.3,8.71,0.67,24.31,1.32,31.08c0.11,1.16,0.23,2.06,0.36,2.63
					c0.45,1.97,1.44,4.1,2.52,5.83c1.04,1.67,2.15,2.97,2.93,3.4c1.59,0.88,6.86,1.58,8.41-1.49c0.21-0.42,0.51-1.39,0.88-2.76
					c0-0.01,0.01-0.02,0.01-0.04c2.31-8.8,7.2-33.93,8.64-36.97c1.67-3.52,6.24-3.78,7.5-6.07c1.26-2.29,1.91-10.47,1.82-17.24
					c0,0-21.9-17.69-25.59-15.32c-1.22,0.79-2.64,3.59-3.97,7.35C334.57,201.67,332.21,216.83,332.44,223.66z"/>
				<path class="st22" d="M326.43,298.7c0,0,0.08,2.46,3.73,3.87c0.59,0.23,1.14,0.41,1.66,0.55c5.35,1.48,7.22-1.16,7.22-1.16
					s0,0,1.93-13.8c1.93-13.81,5.28-17.85,7.3-23.68c0.25-0.73,0.44-1.44,0.58-2.13c0-0.01,0.01-0.02,0.01-0.04
					c0.95-4.77-0.59-8.36-0.59-8.36l-10.55-5.45l-0.53-0.27c0,0-1.48,2.5-3.43,6.52c-1.79,3.7-3.99,8.67-5.8,14.14
					C324.18,280.32,326.43,298.7,326.43,298.7z"/>
				<path class="st23" d="M326.43,298.7c0,0,0.08,2.46,3.73,3.87c0.59,0.23,1.14,0.41,1.66,0.55c-2.46-35.59,2.27-37.36,4.82-39.92
					c0.95-0.96,1.6-2.04,1.44-5.06c-0.13-2.43-0.27-5.77-0.35-9.64c-0.14-6.47-0.1-14.47,0.45-22.32c0.7-9.88,2.21-23.17,5.25-29.3
					c-2.21-1.18-4.26-2.11-6.16-2.82c-2.7,7.61-5.05,22.78-4.82,29.6c0.3,8.71,0.67,24.31,1.32,31.08c-1.79,3.7-3.99,8.67-5.8,14.14
					C324.18,280.32,326.43,298.7,326.43,298.7z"/>
			</g>
			<g>
				<path class="st24" d="M367.23,131.04c5.76-0.16,7.14,1.12,12.51,15.45c1.92,5.13,6.12,20.57,7.12,22.83
					c1,2.26-5.26,11.78-8.99,8.79c-3.73-3-7.19-8.85-8.99-15.18C367.08,156.6,367.23,131.04,367.23,131.04z"/>
				<path class="st25" d="M347.47,130.4c-4.79,2.31-19.35,10.76-19.82,12.2c-0.47,1.44,9.95,45.76,9.82,48.72
					c-0.13,2.96-0.33,3.43-0.33,3.43s1.42,4.96,16.54,5.29c15.13,0.34,20.33-6.43,20.67-7.82c0.33-1.4,0.96-17.58,1.09-28.16
					c0.22-18.14-2.32-26.84-3.55-29.73c-0.75-1.78-1.71-2.78-2.53-3.02c-4.09-1.19-12.72-0.06-12.72-0.06L347.47,130.4z"/>
				<path class="st26" d="M359.49,145.91c0,0,5.76,36.75,6.26,42.54c-1.56,7.08-3,8.52-3,8.52s-3.95-3.18-4.58-5.9
					c-0.63-2.72-1.4-44.42-1.4-44.42L359.49,145.91z"/>
				<path class="st24" d="M382.89,167.58c1.86-0.93,2.46-0.2,3.33-0.07c0.87,0.13,4.43,5.39,5.96,7.39c1.53,2,4.46,4.93,5.46,6.92
					c1,2-2.73,6.12-2.73,6.12s-0.86,3.35-6.52,0.68c-5.66-2.66-11.45-9.57-12.78-12.73C374.34,172.88,380.09,169.07,382.89,167.58z"
					/>
				<path class="st9" d="M392.73,181.87c0.75-0.98,1.11-1.95,1.95-2.17c0.84-0.22,3.82,0.67,3.82,0.67l1.38,0.71
					c0,0,1.78-0.4,2.31-0.29c0.53,0.11,0.84,1.18,0.4,1.58c-0.44,0.4-2.31,1.55-2.31,1.55l-3.15,4.66c0,0-3.11,0.85-5.07,0.25
					c-1.96-0.6-2.3-0.79-2.43-1.94C389.49,185.73,392.73,181.87,392.73,181.87z"/>
				<path class="st9" d="M371.41,183.86c1-0.03,5.32,2.13,6.02,2.33c0.7,0.2,4.06,1,4.63,1.26c0.57,0.27,0.33,1.25-0.23,1.49
					c-0.57,0.24-8.25-1.26-8.25-1.26s2.33,2.7,2.43,3.13c0.1,0.43,0.27,3.43,0.2,3.93c-0.07,0.5-0.8,2.13-1.36,2.23
					c-0.57,0.1-1.26-0.77-1.26-0.77l0.53-2.26l-0.5-1.86l-0.23,2.16l-0.83,1.46l-1.66,0.33l0.03-0.6c0,0-0.73,0.77-1.46,0.5
					c-0.73-0.27-2.16-3.06-2.96-3.36c-0.8-0.3-2.83,0.17-3.56-0.1c-0.73-0.27-4.59-0.23-5.16-2.06c-0.57-1.83,0.27-4.74,2.6-5.65
					c2.33-0.91,6.39-0.29,6.89-0.42C367.75,184.22,371.41,183.86,371.41,183.86z"/>
				<polygon class="st27" points="383.74,183.05 374.93,201.05 373.47,203.02 374.88,204.36 405.65,172.55 404.25,171.22 				"/>
				<polygon class="st28" points="385.15,184.39 376.34,202.39 374.88,204.36 395.26,192.59 405.65,172.55 				"/>
				<path class="st9" d="M398.02,186.32c0,0-0.53,1.16-1.04,1.37c-0.51,0.21-1.38,0.71-1.73,1.14c-0.34,0.43-0.09,1.09-0.09,1.09
					l-1.25,0.34l-0.53,0.78l-0.91,0.57c0,0-0.4,1-0.23,1.26c0.17,0.26,0.64,0.2,0.64,0.2s-0.08,0.6,0.49,0.61
					c0.57,0.02,1.7-0.79,2.04-0.93c0.34-0.14,2.95-1.7,3.46-2.14c0.5-0.45,1.48-2.45,1.67-3.62c0.19-1.17-0.13-1.93-0.13-1.93
					l-0.72-0.28L398.02,186.32z"/>
				<path class="st24" d="M327.8,142.35c2.66-1.33,8.54,3.52,9.43,9.89c0.89,6.37,2.3,28.46,1.17,30.86
					c-1.13,2.4-11.61,5.84-12.83,2.89C324.35,183.02,321.99,145.91,327.8,142.35z"/>
				<path class="st24" d="M354.94,182.42c3.13,0.2,6.32,0.67,6.76,1.83c0.43,1.16,0.4,8.12-2.33,9.39
					c-2.73,1.26-14.64,0.03-18.6-0.7c-3.96-0.73-14.74-1.36-15.28-7.55c-0.53-6.19,9.98-7.76,12.78-6.71
					C341.06,179.73,354.94,182.42,354.94,182.42z"/>
				<polygon class="st24" points="355.15,157.24 355.95,168.91 349.38,171.89 342.72,170.02 342.54,157.24 				"/>
				<polygon class="st26" points="357.9,141.66 360.47,144.74 359.76,147.68 356.8,148.32 355.33,145.91 356.86,141.96 				"/>
				<path class="st9" d="M360.66,134.47c-0.05,0.07-0.09,0.15-0.14,0.23c-0.96,1.71-1.32,4.29-1.96,4.96c-0.67,0.7-3.59,1-5.89,0.1
					c-2.3-0.9-6.02-6.56-5.59-8.72c0.43-2.16,1.26-5.06,1.76-7.32c0.5-2.26-0.33-7.72,0.93-9.58c1.26-1.86,4.08-2.5,4.08-2.5
					s9.37,10.75,9.4,15.08C363.29,131.04,360.66,134.47,360.66,134.47z"/>
				<path class="st24" d="M348.07,130.88c0.07,0.13,3.84,5.32,5.88,6.83c2.04,1.51,3.2,2.04,3.2,2.04l0.18,1.11
					c0,0-3.11,3.82-3.9,4.04c-0.8,0.22-7.68-7.14-8.61-10.74c-0.93-3.59,3.21-7.05,3.21-7.05s-0.72,1.89-0.54,2.18
					C347.65,129.6,348.07,130.88,348.07,130.88z"/>
				<path class="st24" d="M359.23,134.74c-0.04,0.27,0.53,3.9-2.09,5.01c0.18,1.11,0.18,1.11,0.18,1.11s3.46,3.64,4.08,3.68
					c0.62,0.04,0.87-7.06,0.35-8.12C361.23,135.37,359.23,134.74,359.23,134.74z"/>
				<path class="st9" d="M353.11,118.69c-0.1,0.17-2.36,8.99-1.7,10.65c0.67,1.66,7.11,8.29,8.78,8.79c1.67,0.5,4.07-0.61,4.9-1.28
					c0.83-0.67,4.62-9.54,5.75-13.67c1.13-4.13,1.6-8.32,1.26-9.75c-0.33-1.43-3.29-4.03-7.85-4.96
					C359.7,107.54,353.11,118.69,353.11,118.69z"/>
				<path class="st29" d="M366.84,116.49c-1.43,0.43-2.71,0.55-5.12,0.21c-1.17-0.16-1.44-0.94-1.93-0.71
					c-0.36,0.17-0.64,2.48-0.72,2.85c-0.05,0.25-0.6,1.2-0.9,1.26c0,0-1.87,0.01-2.37,0.75c-0.5,0.73-1.3,2.9-1.3,2.9l-1.83-0.37
					c0,0,0.67-2.73-0.5-4.29c-1.16-1.56-2.76-0.03-2.76-0.03s-0.06,4.48-0.79,5.65c-0.54-2.32-1.46-5.82-1.69-7.57
					c-0.23-1.75-1.56-7.48,0.46-10.92c3.25-5.54,9.11-5.27,9.11-5.27s5.32-2.62,9.38-0.53c4.06,2.1,6.72,6.56,7.25,9.82
					c0.53,3.26-0.29,6.75-1.54,9.75c0.22-1.15,0.14-2.33,0.37-3.47c0.07-0.36,0.24-1.49,0.15-1.89c-0.4-1.8-1.1,0.32-1.44,0.5
					C370.26,115.36,367.78,116.2,366.84,116.49z"/>
				<path class="st9" d="M350.71,125.21c-0.72,0.23-1.73-1-2.2-3.1c-0.47-2.1-1.07-3.66,1.1-4.33c2.16-0.67,2.46,2.43,2.26,3.03
					C351.67,121.42,351.77,124.88,350.71,125.21z"/>
			</g>
		</g>
	</g>
	<g>
		<path class="st30" d="M221.13,344.56c-0.42,0-0.84,0-1.26-0.01c-18.74-0.19-36.22-4.6-49.21-12.42
			c-12.92-7.77-19.93-18.05-19.75-28.93c0.09-5.47,1.99-10.78,5.64-15.79c3.75-5.14,9.19-9.72,16.17-13.61
			c13.54-7.55,31.32-11.6,50.05-11.41c18.74,0.19,36.22,4.6,49.21,12.42c12.92,7.77,19.93,18.05,19.75,28.93
			c-0.09,5.47-1.99,10.78-5.64,15.79c-3.75,5.14-9.19,9.72-16.17,13.61C256.69,340.52,239.41,344.56,221.13,344.56z M221.55,263.83
			c-17.31,0-34.67,3.73-48.12,11.23c-13.41,7.48-20.89,17.48-21.07,28.17c-0.17,10.34,6.59,20.17,19.05,27.67
			c26.41,15.89,70.29,16.34,97.82,0.98c13.41-7.48,20.89-17.48,21.07-28.17c0.17-10.34-6.59-20.17-19.05-27.67l0,0
			C257.74,267.92,239.67,263.83,221.55,263.83z"/>
	</g>
	<g>
		<g>
			<g>
				<g>
					<g class="st11">
						<g>
							<path class="st31" d="M147.51,201.02l1.3,0.76c-1.68-0.98-2.73-3.06-2.74-6.02l-1.3-0.76
								C144.78,197.96,145.82,200.04,147.51,201.02z"/>
						</g>
						<g>
							<path class="st31" d="M202.69,50.81l-1.3-0.76c-1.71-0.99-4.07-0.85-6.67,0.65l1.3,0.76
								C198.62,49.96,200.98,49.82,202.69,50.81z"/>
						</g>
						<g>
							<polygon class="st31" points="196.01,51.47 194.71,50.71 187.52,54.86 188.82,55.62 							"/>
						</g>
						<g>
							<path class="st31" d="M188.82,55.62l-1.3-0.76c-1.17,0.68-2.19,2.18-2.46,3.65c-0.26,1.39-1.22,2.82-2.34,3.47l1.3,0.76
								c1.11-0.64,2.08-2.07,2.34-3.47C186.64,57.8,187.65,56.29,188.82,55.62z"/>
						</g>
						<g>
							<polygon class="st31" points="184.03,62.73 182.73,61.97 165.83,71.73 167.13,72.48 							"/>
						</g>
						<g>
							<path class="st31" d="M164.12,71.89l1.3,0.76c0.44,0.26,1.05,0.21,1.71-0.17l-1.3-0.76
								C165.17,72.11,164.56,72.15,164.12,71.89z"/>
						</g>
						<g>
							<path class="st31" d="M164.12,70.75l-1.3-0.76c-0.47-0.27-1.11-0.23-1.81,0.18l1.3,0.76
								C163.01,70.52,163.66,70.47,164.12,70.75z"/>
						</g>
						<g>
							<polygon class="st31" points="145.78,91.26 144.48,90.5 144.77,195 146.07,195.76 							"/>
						</g>
						<g>
							<polygon class="st31" points="162.32,70.92 161.01,70.17 153.82,74.32 155.12,75.07 							"/>
						</g>
						<g>
							
								<linearGradient id="SVGID_9_" gradientUnits="userSpaceOnUse" x1="-4578.6255" y1="162.157" x2="-4507.2471" y2="90.7785" gradientTransform="matrix(-1 0 0 1 -4366.8906 0)">
								<stop  offset="0" style="stop-color:#3385FF"/>
								<stop  offset="1" style="stop-color:#7BAEFA"/>
							</linearGradient>
							<path class="st32" d="M155.43,76.34c-4.65,2.68-8.41,9.2-8.4,14.54l0.3,104.5c0.01,5.34,3.8,7.5,8.45,4.82l40.89-23.61
								c4.65-2.68,8.41-9.2,8.4-14.54l-0.3-104.5c-0.01-5.34-3.8-7.5-8.45-4.81l-7.19,4.15c-0.73,0.42-1.37,1.36-1.53,2.27
								c-0.36,1.95-1.71,3.94-3.26,4.84l-16.89,9.75c-1.55,0.9-2.9,0.46-3.28-1.06c-0.17-0.71-0.81-0.92-1.54-0.5L155.43,76.34z"/>
						</g>
						
							<linearGradient id="SVGID_10_" gradientUnits="userSpaceOnUse" x1="-4582.2261" y1="149.1508" x2="-4503.0488" y2="103.4378" gradientTransform="matrix(-1 0 0 1 -4366.8906 0)">
							<stop  offset="0.0747" style="stop-color:#1F79FF"/>
							<stop  offset="0.5464" style="stop-color:#7BAEFA"/>
							<stop  offset="1" style="stop-color:#90BBFB"/>
						</linearGradient>
						<path class="st33" d="M145.78,91.26l0.3,104.5c0.02,5.95,4.23,8.35,9.41,5.36l40.89-23.61c5.18-2.99,9.36-10.24,9.35-16.19
							l-0.3-104.5c-0.02-5.95-4.23-8.35-9.41-5.36l-7.19,4.15c-1.17,0.68-2.19,2.18-2.46,3.65c-0.26,1.39-1.22,2.82-2.34,3.47
							l-16.89,9.75c-1.11,0.64-2.08,0.33-2.35-0.76c-0.28-1.14-1.3-1.47-2.47-0.8l-7.19,4.15
							C149.95,78.06,145.76,85.31,145.78,91.26z M147.33,195.38l-0.3-104.5c-0.02-5.34,3.75-11.85,8.4-14.54l7.19-4.15
							c0.73-0.42,1.37-0.21,1.54,0.5c0.37,1.52,1.73,1.96,3.28,1.06L184.33,64c1.55-0.9,2.9-2.89,3.26-4.84
							c0.17-0.91,0.8-1.85,1.53-2.27l7.19-4.15c4.65-2.69,8.44-0.53,8.45,4.81l0.3,104.5c0.02,5.34-3.75,11.86-8.4,14.54
							l-40.89,23.61C151.13,202.88,147.34,200.73,147.33,195.38z"/>
						<g>
							<path class="st31" d="M155.12,75.07l-1.3-0.76c-5.18,2.99-9.36,10.24-9.35,16.19l1.3,0.76
								C145.76,85.31,149.95,78.06,155.12,75.07z"/>
						</g>
					</g>
				</g>
				
					<linearGradient id="SVGID_11_" gradientUnits="userSpaceOnUse" x1="-4573.3452" y1="147.0486" x2="-4501.3276" y2="100.317" gradientTransform="matrix(-1 0 0 1 -4366.8906 0)">
					<stop  offset="0" style="stop-color:#000000"/>
					<stop  offset="0.4919" style="stop-color:#21227B"/>
					<stop  offset="0.8411" style="stop-color:#3739CB"/>
					<stop  offset="1" style="stop-color:#3F42EB"/>
				</linearGradient>
				<path class="st34" d="M204.47,55.25c0.18,0.69,0.29,1.45,0.29,2.3l0.21,72.89l-48.23,69.2l-0.97,0.56
					c-4.65,2.69-8.44,0.53-8.45-4.82l-0.16-57.91L204.47,55.25z"/>
			</g>
			<g>
				<g class="st11">
					<path class="st35" d="M198.71,66.09l-0.1-1.31c-0.25-3.35-2.73-4.75-5.53-3.14l-4.81,2.78c-2.8,1.62-4.87,5.65-4.62,9l0.1,1.31
						c0.25,3.35,2.73,4.75,5.53,3.13l4.81-2.78C196.89,73.46,198.96,69.44,198.71,66.09z"/>
					<path class="st35" d="M192.8,164.46l-0.11-1.47c-0.28-3.74-6.79-2.57-6.19-3.51l-24.74,14.28c-3.14,1.81-5.45,6.32-5.17,10.06
						l0.11,1.47c0.28,3.75,3.05,5.32,6.19,3.51l24.74-14.28C190.77,172.71,193.09,168.21,192.8,164.46z"/>
				</g>
			</g>
			<g>
				<g class="st11">
					<g>
						<path class="st36" d="M199.54,61.97l1.58,0.76c-0.98-0.47-2.23-0.38-3.55,0.38l-1.58-0.76
							C197.31,61.59,198.56,61.5,199.54,61.97z"/>
					</g>
					<g>
						<path class="st36" d="M190.21,79.72l-1.58-0.76c-1.09-0.52-1.85-1.75-1.98-3.52l1.58,0.76
							C188.36,77.97,189.12,79.2,190.21,79.72z"/>
					</g>
					<g>
						<polygon class="st36" points="192.75,65.89 191.18,65.13 195.99,62.36 197.57,63.11 						"/>
					</g>
					<g>
						<polygon class="st36" points="188.23,76.2 186.65,75.45 186.55,74.13 188.13,74.89 						"/>
					</g>
					<g>
						<path class="st37" d="M198.04,64.77c2.12-1.22,3.99-0.16,4.18,2.37l0.1,1.31c0.19,2.53-1.37,5.57-3.49,6.79l-4.81,2.78
							c-2.12,1.22-3.99,0.16-4.18-2.36l-0.1-1.31c-0.19-2.53,1.37-5.58,3.49-6.8L198.04,64.77z"/>
					</g>
					<path class="st38" d="M203.2,67.56l-0.1-1.31c-0.25-3.35-2.73-4.75-5.53-3.14l-4.81,2.78c-2.8,1.62-4.87,5.65-4.62,9l0.1,1.31
						c0.25,3.35,2.73,4.75,5.53,3.13l4.81-2.78C201.38,74.94,203.45,70.91,203.2,67.56z M198.83,75.25l-4.81,2.78
						c-2.12,1.22-3.99,0.16-4.18-2.36l-0.1-1.31c-0.19-2.53,1.37-5.58,3.49-6.8l4.81-2.78c2.12-1.22,3.99-0.16,4.18,2.37l0.1,1.31
						C202.51,70.98,200.94,74.02,198.83,75.25z"/>
					<g>
						<path class="st36" d="M188.13,74.89l-1.58-0.76c-0.25-3.35,1.82-7.38,4.62-9l1.58,0.76
							C189.95,67.51,187.88,71.54,188.13,74.89z"/>
					</g>
				</g>
			</g>
			<g>
				<path class="st5" d="M168.14,94.26c-5.39-2.89-10.28,3.98-6.97,9.92c3.31,5.93,0.69,12.95-2.87,12.21
					c1.98,2.77,11.31,7.83,13.54-0.35C174.07,107.87,168.14,94.26,168.14,94.26z"/>
				<path class="st8" d="M188.01,124.09c3,0.7,3.41,2.04,4.56,3.93c1.15,1.89,6.49,8.94,6.93,9.53c0.45,0.59-1.08,7.79-2,7.56
					c-0.93-0.22-3.81-1.67-7.69-6.82C185.93,133.14,182.34,125.39,188.01,124.09z"/>
				<path class="st8" d="M177.83,114.79c6.69,0.73,8.88,2.51,11.25,5c2.37,2.48,9,15.88,9,15.88s-7.55-5.6-10.26-4.75
					C185.12,131.76,177.83,114.79,177.83,114.79z"/>
				<path class="st22" d="M180.07,181.3c-0.05,1.08-0.17,2.28-0.34,3.52c-0.1,0.77-0.22,1.55-0.35,2.34l-5.53,3.2l-8.12,4.68
					c-0.04-0.55-0.14-1.22-0.27-1.98c-0.66-3.86-2.28-10-3.14-14.36c-1.11-5.64-0.74-13.98,0.3-18.05l9.59-2.35l4.65-1.14
					c0,0,3.41,1.49,3.97,4.19C181.37,164.06,180.41,174.51,180.07,181.3z"/>
				<path class="st22" d="M191.45,178.06c-0.15,0.8-0.31,1.62-0.5,2.43l-11.57,6.67l-5.53,3.2l-0.11-2.08l-1.54-29.98l-0.17-3.33
					l16.76-0.14c0.78,5.04,1.35,10.54,1.46,11.84C190.33,167.59,192.45,172.59,191.45,178.06z"/>
				<path class="st10" d="M170.29,114.97c-5.78,3.89-10.08,5.42-12.16,9.05c-2.08,3.63,4.26,25.36,4.63,27.51
					c0.37,2.15-1.3,10.05-1.3,12.17c0,2.13,7.86,7.51,18.34,4.89c10.48-2.62,10.02-6.16,9.77-8.73c-0.25-2.57,0.46-13.76,0.71-15.44
					c0.25-1.68,1.29-3.91,1.09-8.65c-0.2-4.75-5.39-14.78-7.22-17.5c-1.83-2.72-4.99-3.16-6.92-3.61
					C175.3,114.22,170.29,114.97,170.29,114.97z"/>
				<path class="st6" d="M168.91,116.53c-3.37,2.08-4.38,3.7,0.37,9.76c4.76,6.06,14.56,21.18,14.56,21.18s4.11-17.07-3.81-28.91
					C176.95,113.95,168.91,116.53,168.91,116.53z"/>
				<path class="st8" d="M184.31,149.83l-0.46-2.54c0,0-14.16-20.76-15.7-23.41c-1.54-2.65-1.3-4.87-0.75-5.66
					c0.55-0.79,0.77-1.77,0.77-1.77s-2.71,1.42-3.59,3.87s-0.76,4.68,2.77,8.75c2.9,0.85,3.38,1.47,3.38,1.47l-0.88,3
					C169.84,133.55,172.82,136.89,184.31,149.83z"/>
				<path class="st8" d="M177.86,116.67c2.98,2,6.97,5.83,5.99,30.81c0.47,2.14,0.47,2.14,0.47,2.14s3.81-13.07,1.37-22.75
					l-1.49-1.2l0.89-2.27C185.09,123.39,183.59,116.43,177.86,116.67z"/>
				<g>
					<g class="st11">
						<g>
							<path class="st36" d="M193.54,159.43l1.76,0.85c-1.09-0.52-2.49-0.42-3.97,0.43l-1.76-0.85
								C191.05,159.01,192.45,158.91,193.54,159.43z"/>
						</g>
						<g>
							<path class="st36" d="M163.75,190.46l-1.76-0.85c-1.22-0.59-2.06-1.96-2.21-3.94l1.76,0.85
								C161.69,188.5,162.53,189.87,163.75,190.46z"/>
						</g>
						<g>
							<polygon class="st36" points="166.59,175 164.83,174.15 189.57,159.87 191.34,160.71 							"/>
						</g>
						<g>
							<polygon class="st36" points="161.54,186.52 159.77,185.68 159.66,184.21 161.43,185.06 							"/>
						</g>
						<g>
							<path class="st37" d="M191.87,162.56c2.37-1.37,4.46-0.18,4.67,2.65l0.11,1.47c0.21,2.83-1.53,6.23-3.9,7.6L168,188.57
								c-2.37,1.37-4.46,0.18-4.67-2.65l-0.11-1.47c-0.21-2.83,1.53-6.23,3.9-7.6L191.87,162.56z"/>
						</g>
						<path class="st38" d="M197.63,165.68l-0.11-1.47c-0.28-3.74-3.05-5.32-6.19-3.51L166.59,175c-3.14,1.81-5.45,6.32-5.17,10.06
							l0.11,1.47c0.28,3.75,3.05,5.32,6.19,3.51l24.74-14.28C195.6,173.93,197.91,169.43,197.63,165.68z M192.75,174.28L168,188.56
							c-2.37,1.37-4.46,0.18-4.67-2.65l-0.11-1.47c-0.21-2.83,1.53-6.23,3.9-7.6l24.74-14.28c2.37-1.37,4.46-0.18,4.67,2.65
							l0.11,1.47C196.86,169.51,195.12,172.91,192.75,174.28z"/>
						<g>
							<path class="st36" d="M161.43,185.06l-1.76-0.85c-0.28-3.74,2.03-8.25,5.17-10.06l1.76,0.85
								C163.46,176.81,161.15,181.31,161.43,185.06z"/>
						</g>
					</g>
				</g>
				<path class="st9" d="M168.93,108.04c1.29,4-0.94,9.2-1.78,10.58c-0.84,1.38,3.91,6.28,6.82,7.42c2.92,1.14,5.13-0.8,5.13-0.8
					s1.59-1.67,0.41-4.98c-1.19-3.31-1.19-3.31-1.19-3.31l2.87-7.91C181.19,109.02,171.35,96.71,168.93,108.04z"/>
				<path class="st9" d="M174.54,98.77c0,0-1.9,3.66-1.73,7.61c0.17,3.95-0.57,6.15,0.37,7.69c0.94,1.53,6.19,4.84,7.27,4.89
					c1.09,0.05,1.98-0.44,2.25-1.01c0.27-0.57,1.62-5.93,1.87-7.95c0.23-1.85,0.22-5.84-0.23-8.73c-0.44-2.89-1.73-4.31-2.49-4.73
					C181.09,96.11,174.54,98.77,174.54,98.77z"/>
				<path class="st8" d="M157.66,131.19c0,0-1.73-0.99-2.27,5.04c-0.54,6.03-0.89,16.56-0.45,17.8c0.45,1.24,2.57,2.22,4.55,1.93
					c1.98-0.3,3.41-4.5,3.41-4.5l2.52-15.42L157.66,131.19z"/>
				<path class="st9" d="M161.76,150.96c-3.76,0.2-6.28,2.87-6.38,3.76c-0.1,0.89,13.64,10.08,20.12,12.75
					c1.93,1.53,2.32,1.73,3.68,1.71c1.36-0.02,2.2,0.25,2.2,0.25s4.67,1.88,5.39,1.9c0.72,0.02,1.16-0.67,1.16-0.67
					s0.72,0.72,1.21,0.67c0.49-0.05,0.72-0.4,0.72-0.4s0.77,0.02,0.99-0.57c0.22-0.59,0-1.19,0-1.19s0.07-0.59,0.1-0.94
					c0.02-0.35-2.64-2.77-3.49-3.44c-0.84-0.67-2.6-1.71-3.61-1.83c-1.01-0.12-4.82,0.59-5.76,0.2
					c-0.94-0.4-13.42-10.31-14.21-11.64C162.55,150.94,161.76,150.96,161.76,150.96z"/>
				<path class="st8" d="M177.82,163.01c-1.76-2.86-14.75-13.48-14.75-13.48s-7.9,2.5-8.2,4.73c0.18,1.22,0.34,1.09,1.25,1.99
					c0.91,0.89,13.99,9.9,16.19,10.76c2.2,0.86,2.48,0.17,2.48,0.17S175.02,163.51,177.82,163.01z"/>
				<path class="st9" d="M219.82,133.51c-4.04,0.74-12.35,3.02-20.69,3.55c-1.37,2.01-3.71,6.05-1.63,8.06
					c1.37,0.3,5.97-0.19,8.9-1.3c2.93-1.11,11.38-4.97,12.57-4.97c1.19,0,3.5,1.3,5.39,1.33c1.89,0.04,7.73,0.63,7.73-0.95
					c1.24-0.26,1.56-0.56,1.28-1.46c0.8-0.32,0.52-1.09,0.41-1.35c-0.11-0.26,0.17-0.93-0.56-1.15c-0.72-0.22-2.24,0.19-3.69-0.02
					c-1.45-0.2-4.69-1.48-4.69-1.48s0.95-1.02,1.43-1.15c0.48-0.13,1.91,0.02,3.17-0.54c1.26-0.56,1.02-1.37,0.04-1.32
					c-0.98,0.06-4.69,0.22-5.67,0.15C222.82,130.84,219.82,133.51,219.82,133.51z"/>
				<path class="st8" d="M218.41,138.96c-1.09-2.21-0.97-4.64-0.37-5.09c0.69-0.15,0.96-0.39-2.01,0
					c-2.97,0.39-15.58,1.87-17.17,2.83c-1.59,0.97-2.61,3.91-2.92,5.7c-0.31,1.79,0.38,2.21,0.38,2.21s0.94,1,2.63,0.96
					C200.64,145.52,207.03,145.14,218.41,138.96z"/>
				<path class="st39" d="M227.31,136.12c-1.04,0.84-2.69,1.53-4.42,0.2c-1.73-1.33-3.63-0.94-3.63-0.94s2.25,0.89,3.14,1.9
					c0.89,1.01,4.29,1.27,4.29,1.27s3.63,0.26,4.89-0.26C232.83,137.77,235.1,134.87,227.31,136.12z"/>
				<path class="st5" d="M181.48,97.74c-3.21,0.96-5.46,1.47-6.45,4.49c-0.99,3.02-1.26,6.37-1.26,6.37l-1.01,1.41
					c0,0,0.02-1.9-0.3-2.35c-0.32-0.44-2.42-1.04-2.67,0.17c-0.25,1.21-0.04,5.99-1.13,7.11c-0.05-2.78-1.24-3.77-2.55-5.43
					c-1.31-1.66-2.74-3.61-2.6-7.44c0.15-3.83,1.06-6.7,5.66-8.21c5.04-2.67,12.21,0.83,13.1,1.6c0.89,0.77,1.35,3.32,1.35,3.32
					s-0.93-1.24-1.08-1.32C182.4,97.4,181.48,97.74,181.48,97.74z"/>
				<path class="st8" d="M160.65,123.54c-1.9-0.5-2.52,0.48-2.52,0.48s-1.98,2.53-2.47,5.99c-0.49,3.46-0.52,9.39-0.52,9.39
					s-0.4,8.42,8.2,9.33c0.64,0.07,2.95-13.24,3.09-15.51S165.69,124.33,160.65,123.54z"/>
				<path class="st9" d="M171.74,108.9c0.22-1.56-1.68-2.36-2.58-1.81c-0.9,0.55-0.33,3.66,0.95,4.26c1.29,0.59,1.47,0.3,1.65,0
					C171.94,111.05,171.74,108.9,171.74,108.9z"/>
			</g>
			<g>
				<g>
					<g>
						<g class="st11">
							<g>
								<path class="st31" d="M307.57,193.85l-1.3,0.76c1.68-0.98,2.73-3.06,2.74-6.02l1.3-0.76
									C310.3,190.79,309.26,192.87,307.57,193.85z"/>
							</g>
							<g>
								<path class="st31" d="M252.39,43.64l1.3-0.76c1.71-0.99,4.07-0.85,6.67,0.65l-1.3,0.76
									C256.46,42.79,254.1,42.65,252.39,43.64z"/>
							</g>
							<g>
								<polygon class="st31" points="259.07,44.3 260.37,43.54 267.56,47.69 266.26,48.45 								"/>
							</g>
							<g>
								<path class="st31" d="M266.26,48.45l1.3-0.76c1.17,0.68,2.19,2.18,2.46,3.65c0.26,1.39,1.22,2.82,2.34,3.47l-1.3,0.76
									c-1.11-0.64-2.08-2.07-2.34-3.47C268.44,50.63,267.43,49.12,266.26,48.45z"/>
							</g>
							<g>
								<polygon class="st31" points="271.05,55.56 272.35,54.8 289.25,64.56 287.95,65.31 								"/>
							</g>
							<g>
								<path class="st31" d="M290.96,64.72l-1.3,0.76c-0.44,0.26-1.05,0.21-1.71-0.17l1.3-0.76
									C289.91,64.94,290.52,64.98,290.96,64.72z"/>
							</g>
							<g>
								<path class="st31" d="M290.96,63.58l1.3-0.76c0.47-0.27,1.11-0.23,1.81,0.18l-1.3,0.76
									C292.07,63.35,291.42,63.3,290.96,63.58z"/>
							</g>
							<g>
								<polygon class="st31" points="309.3,84.09 310.6,83.33 310.31,187.84 309.01,188.59 								"/>
							</g>
							<g>
								<polygon class="st31" points="292.77,63.75 294.07,63 301.26,67.15 299.96,67.9 								"/>
							</g>
							<g>
								<linearGradient id="SVGID_12_" gradientUnits="userSpaceOnUse" x1="243.346" y1="154.9873" x2="314.7245" y2="83.6088">
									<stop  offset="0" style="stop-color:#3385FF"/>
									<stop  offset="1" style="stop-color:#7BAEFA"/>
								</linearGradient>
								<path class="st40" d="M299.65,69.17c4.65,2.68,8.41,9.2,8.4,14.54l-0.3,104.5c-0.01,5.34-3.8,7.5-8.45,4.82l-40.89-23.61
									c-4.65-2.68-8.41-9.2-8.4-14.54l0.3-104.5c0.01-5.34,3.8-7.5,8.45-4.81l7.19,4.15c0.73,0.42,1.37,1.36,1.53,2.27
									c0.36,1.95,1.71,3.94,3.26,4.84l16.89,9.75c1.55,0.9,2.9,0.46,3.28-1.06c0.17-0.71,0.81-0.92,1.54-0.5L299.65,69.17z"/>
							</g>
							<linearGradient id="SVGID_13_" gradientUnits="userSpaceOnUse" x1="239.7451" y1="141.9811" x2="318.9225" y2="96.2681">
								<stop  offset="0.0747" style="stop-color:#1F79FF"/>
								<stop  offset="0.5464" style="stop-color:#7BAEFA"/>
								<stop  offset="1" style="stop-color:#90BBFB"/>
							</linearGradient>
							<path class="st41" d="M299.96,67.9l-7.19-4.15c-1.17-0.67-2.19-0.35-2.47,0.8c-0.27,1.09-1.24,1.4-2.35,0.76l-16.89-9.75
								c-1.11-0.64-2.08-2.07-2.34-3.47c-0.27-1.46-1.29-2.97-2.46-3.65l-7.19-4.15c-5.18-2.99-9.39-0.59-9.41,5.36l-0.3,104.5
								c-0.02,5.95,4.17,13.2,9.35,16.19l40.89,23.61c5.18,2.99,9.39,0.59,9.41-5.36l0.3-104.5
								C309.32,78.14,305.14,70.89,299.96,67.9z M299.3,193.03l-40.89-23.61c-4.65-2.68-8.41-9.2-8.4-14.54l0.3-104.5
								c0.01-5.34,3.8-7.5,8.45-4.81l7.19,4.15c0.73,0.42,1.37,1.36,1.53,2.27c0.36,1.95,1.71,3.94,3.26,4.84l16.89,9.75
								c1.55,0.9,2.9,0.46,3.28-1.06c0.17-0.71,0.81-0.92,1.54-0.5l7.19,4.15c4.65,2.68,8.41,9.2,8.4,14.54l-0.3,104.5
								C307.74,193.56,303.95,195.71,299.3,193.03z"/>
							<g>
								<path class="st31" d="M299.96,67.9l1.3-0.76c5.18,2.99,9.36,10.24,9.35,16.19l-1.3,0.76
									C309.32,78.14,305.14,70.89,299.96,67.9z"/>
							</g>
						</g>
					</g>
					<linearGradient id="SVGID_14_" gradientUnits="userSpaceOnUse" x1="248.6262" y1="139.8789" x2="320.644" y2="93.1473">
						<stop  offset="0" style="stop-color:#000000"/>
						<stop  offset="0.4919" style="stop-color:#21227B"/>
						<stop  offset="0.8411" style="stop-color:#3739CB"/>
						<stop  offset="1" style="stop-color:#3F42EB"/>
					</linearGradient>
					<path class="st42" d="M250.61,48.08c-0.18,0.69-0.29,1.45-0.29,2.3l-0.21,72.89l48.23,69.2l0.97,0.56
						c4.65,2.69,8.44,0.53,8.45-4.82l0.16-57.91L250.61,48.08z"/>
				</g>
				<path class="st35" d="M296.61,159.29l-32.26-18.63c-4.09-2.36-7.87-0.24-8.45,4.74l-0.32,2.8c-0.58,4.98,2.27,10.93,6.36,13.29
					l32.26,18.63c4.09,2.36,7.87,0.24,8.45-4.74l0.32-2.8C303.54,167.6,300.7,161.65,296.61,159.29z"/>
				<g>
					<path class="st24" d="M262.04,95.9c-0.3-0.01-2.98-0.5-5.06,2.01c-1.73,2.07-3.1,4.67-4.17,6.81
						c-1.07,2.14-5.57,10.28-5.57,10.28s-2.49,5.3-2.54,5.6c-0.05,0.29-3.06,4.57-1.4,6.28c1.66,1.71,5.8,2.24,6.57,1.87
						c5.93-2.86,10.34-13.28,10.34-13.28L262.04,95.9z"/>
					<path class="st43" d="M280.16,151.4l-0.29,18.26l-0.17,10.82l-0.03,1.78c0,0-0.06,0.15-0.21,0.39l-15.18-8.76
						c-0.08-0.78-0.16-1.59-0.25-2.45c-0.13-1.32-0.25-2.74-0.39-4.26c-0.82-9.57,0.04-18.8,1.35-29.04c0,0,9.63-0.23,13.39,1.15
						c0.63,0.23,1.1,0.51,1.33,0.84C281.31,142.42,280.16,151.4,280.16,151.4z"/>
					<path class="st43" d="M297.26,189.8c-0.17,0.96-0.46,1.76-0.88,2.4c-0.59-0.19-1.18-0.47-1.79-0.82l-12.38-7.14
						c-0.11-0.8-0.23-1.65-0.34-2.5c-0.6-4.4-1.29-9.22-1.99-12.08c-0.29-1.17-0.59-2.01-0.88-2.36c-1.83-2.16-6.16-3.72-7.28-5.82
						c-1.12-2.11,0.88-18.09,0.88-18.09s2.56-2.16,5.8-4.1c4.03-2.42,9.09-4.53,11.48-1.71c4.3,5.07,7.53,14.31,7.05,23.57
						c-0.48,9.26,0.24,20.12,0.5,24.98C297.5,187.56,297.45,188.78,297.26,189.8z"/>
					<path class="st25" d="M259.46,98.72c3.09-3.1,15.2-4.11,15.2-4.11s2.28-0.55,4.32-0.08c2.04,0.47,12.16,6.13,12.29,6.4
						c0.13,0.27,2.58,12.79,2.14,17.91c-0.43,5.12-0.13,19.67-0.28,23.82c-5.95,5.85-16.59,5.63-20.59,4.2
						c-4-1.43-7.77-4.81-8.1-5.64c-0.33-0.82-3.8-13.73-3.8-13.73s-2.67-7.12-3.06-11.97C257.19,110.67,256.48,101.71,259.46,98.72z
						"/>
					<path class="st44" d="M268.28,107.84c-1.06,5.08,2.66,34.68,2.66,34.68l2.79,4.33l1.61-4.06l-5.8-34.95H268.28z"/>
					<path class="st9" d="M264.27,95.1c0.65,0.69,1.84,3.76,1.83,5.7c-0.01,1.93,1.55,2.81,3.16,2.68c1.61-0.12,3.68-0.81,5.98-2.99
						c2.31-2.19,4.57-4.67,3.99-5.36c-0.59-0.68-2.27-3.5-2.27-3.5s-0.78-4.05-0.95-5.55c-0.17-1.5-0.44-6.73-1.62-7.21
						c-1.19-0.47-6.23,3.27-6.23,3.27L264.27,95.1z"/>
					<path class="st9" d="M271.83,83.2c0,0,1.26,8.85,0.97,9.72c-0.3,0.87-6.81,5.71-7.71,5.79c-0.9,0.07-2.69-0.2-3.79-1.44
						c-0.49-0.55-3.96-8.45-4.49-11.85s-0.64-8.24,0.21-9.1c0.85-0.86,6.13-3.16,8.24-3.02c2.11,0.14,6.2,4.54,6.2,4.54L271.83,83.2
						z"/>
					<path class="st24" d="M289.81,100.24c-2.22-0.09-5.56,3.39-4.94,9.17c0.63,5.78,9.01,23.83,9.01,23.83s8.26,2.67,8.9,0.75
						c0.65-1.92-3.46-18.04-6.46-24.47C293.33,103.1,291.89,100.58,289.81,100.24z"/>
					<path class="st24" d="M250.23,127.24c0.13-2.71-2.94-8.48-4.13-8.98c-1.19-0.5-15.48-2.84-15.48-2.84s-1.52-0.34-2.41,1.89
						c-0.88,2.23-1.12,3.42-0.64,3.89c0.48,0.47,16.41,8.49,21.64,7.64C250.74,127.85,250.23,127.24,250.23,127.24z"/>
					<path class="st9" d="M227.19,115.42c0.6,1.1,0.31,3.98,0.19,4.27c-0.12,0.29-0.6,0.65-0.6,0.65l-2.34-0.2
						c0,0-1.5,0.39-2.74,0.16c-1.25-0.23-7.14-3.01-7.36-3.97s-1.18-4.86,1.57-5.62c2.74-0.76,5.66-0.04,5.66-0.04
						s0.91,0.1,1.24,1.15C223.14,112.85,227.19,115.42,227.19,115.42z"/>
					<polygon class="st45" points="219.54,96.26 204.12,101.6 206.48,128.44 221.9,123.1 					"/>
					<polygon class="st46" points="217.98,100.12 206.26,104.18 208.05,124.59 219.77,120.52 					"/>
					<g>
						<polygon class="st45" points="219.15,100.5 205.08,105.38 205.2,106.8 219.28,101.92 						"/>
						<polygon class="st45" points="219.36,102.67 205.28,107.55 205.41,108.97 219.48,104.09 						"/>
						<polygon class="st45" points="219.56,104.84 205.48,109.72 205.61,111.14 219.68,106.26 						"/>
						<polygon class="st45" points="219.76,107.01 205.69,111.89 205.81,113.31 219.89,108.43 						"/>
						<polygon class="st45" points="219.97,109.18 205.89,114.06 206.02,115.48 220.09,110.6 						"/>
						<polygon class="st45" points="220.17,111.35 206.1,116.22 206.22,117.64 220.3,112.77 						"/>
						<polygon class="st45" points="220.38,113.52 206.3,118.39 206.42,119.81 220.5,114.94 						"/>
						<polygon class="st45" points="220.58,115.69 206.5,120.56 206.63,121.98 220.7,117.11 						"/>
						<polygon class="st45" points="220.78,117.86 206.71,122.73 206.83,124.15 220.91,119.28 						"/>
					</g>
					<path class="st9" d="M222.96,114.05c0,0-3.32,0.52-3.83,0.68c-0.51,0.17-1.67,0.09-2.39,0.4c-0.72,0.31-0.54,1.42,0.43,1.67
						c0.97,0.26,2.51-0.04,2.51-0.04s1.53,0.1,1.87,0.73c0.34,0.62,0.59,1.22,1.72,1.36c1.13,0.14,3.18,0.54,3.13-1.18
						C226.35,115.98,222.96,114.05,222.96,114.05z"/>
					<path class="st29" d="M259.24,79.44c3.83,1.37,6.39,0.4,6.49,0.74c0.1,0.34,0.53,3.35,0.53,3.35l2.15,0.59l1.57,3.01l1.68-0.42
						c0,0-0.22-2.24,1.13-3.17c1.36-0.93,2.51,1.09,2.42,2.36c-0.09,1.28,1.4,3.85,1.4,3.85s1.13-3.86,1.47-4.83
						c2.09-6.06,3.79-11.08-5.34-14.3c-5.9-5.45-13.67-1.32-15.58,1.94c-1.91,3.26-0.66,5.5-0.66,5.5S256.99,78.64,259.24,79.44z"/>
					<path class="st9" d="M272.17,85.69c-0.21-2.16,0.67-2.85,2.12-2.67c1.45,0.18,1.12,1.97,0.63,3.53
						c-0.48,1.56-0.8,2.67-1.95,2.43C271.82,88.75,272.17,85.69,272.17,85.69z"/>
				</g>
				<path class="st24" d="M278.74,94.47c0.22,1.89-4.13,7.76-10.11,8.34c-0.08,0.66-0.08,0.66-0.08,0.66l2.1,2.98
					c0,0,10.52-3.18,10.74-10.17c-0.5-1.01-3.47-3.08-3.47-3.08L278.74,94.47z"/>
				<path class="st24" d="M268.63,102.81c-1.95-0.65-2.33-1.67-2.63-3.14c-1.39,1.7-0.57,4.6,0.64,5.79c0.88-0.8,1.91-2,1.91-2
					L268.63,102.81z"/>
				<g>
					<g class="st11">
						<g>
							<path class="st36" d="M254.58,142.21l1.52-0.64c1.45-0.61,3.23-0.46,5.08,0.61l-1.52,0.64
								C257.82,141.75,256.03,141.6,254.58,142.21z"/>
						</g>
						<g>
							<path class="st36" d="M296.1,182.23l-1.52,0.64c1.77-0.74,3.05-2.61,3.37-5.35l1.52-0.64
								C299.15,179.62,297.87,181.49,296.1,182.23z"/>
						</g>
						<g>
							<polygon class="st36" points="259.66,142.81 261.18,142.18 293.45,160.8 291.92,161.44 							"/>
						</g>
						<g>
							<polygon class="st36" points="298.27,174.73 299.8,174.09 299.47,176.88 297.95,177.52 							"/>
						</g>
						<g>
							<path class="st37" d="M291.32,163.79c3.08,1.78,5.24,6.28,4.8,10.04l-0.32,2.8c-0.44,3.76-3.3,5.36-6.38,3.58l-32.26-18.63
								c-3.09-1.78-5.24-6.28-4.8-10.04l0.32-2.8c0.43-3.76,3.3-5.36,6.38-3.58L291.32,163.79z"/>
						</g>
						<path class="st38" d="M291.92,161.44l-32.26-18.63c-4.09-2.36-7.87-0.24-8.45,4.74l-0.32,2.8
							c-0.58,4.98,2.27,10.93,6.36,13.29l32.26,18.63c4.09,2.36,7.87,0.24,8.45-4.74l0.32-2.8
							C298.85,169.75,296.01,163.8,291.92,161.44z M295.79,176.62c-0.44,3.76-3.3,5.36-6.38,3.58l-32.26-18.63
							c-3.09-1.78-5.24-6.28-4.8-10.04l0.32-2.8c0.43-3.76,3.3-5.36,6.38-3.58l32.26,18.63c3.09,1.78,5.24,6.28,4.8,10.04
							L295.79,176.62z"/>
						<g>
							<path class="st36" d="M291.92,161.44l1.52-0.64c4.09,2.36,6.93,8.31,6.35,13.28l-1.52,0.64
								C298.85,169.75,296.01,163.8,291.92,161.44z"/>
						</g>
					</g>
				</g>
				<g>
					<path class="st24" d="M298.96,131.9c-2.7-1.52-5.61,0.21-5.61,0.21s-13.38,16.1-14.02,17.18c-0.64,1.09,3.28,5.19,4.49,4.99
						c1.21-0.2,19.38-15.97,18.95-20.29C301.39,132.5,298.96,131.9,298.96,131.9z"/>
					<path class="st9" d="M280.03,149.42l-3.94,2.16c0,0-3.15,0.72-3.81,1.07c-0.66,0.35-2.54,2.99-2.64,3.31
						c-0.1,0.33,0.25,1.23,0.25,1.23s-0.2,1.69-0.02,2.04c0.18,0.35,1.38,0.81,1.38,0.81s0.18,0.7,0.73,0.86
						c0.54,0.16,0.87,0.05,0.87,0.05s0.12,0.62,1.45,0.19c1.34-0.43,1.43-1.47,2.55-2.03c1.13-0.56,3.11-1.32,4.56-2.95
						c1.46-1.63,1.68-2.31,1.68-2.31s0.49-0.48,0.42-0.84C283.46,152.66,281.69,150.21,280.03,149.42z"/>
				</g>
				<path class="st44" d="M268.55,103.47c0,0-1.61,1.52-1.6,2.98c0.01,1.47,1.15,3.28,1.15,3.28l1.43,0.36c0,0,2.01-1.59,1.11-3.64
					C269.75,104.4,268.55,103.47,268.55,103.47z"/>
			</g>
		</g>
	</g>
	<path class="st30" d="M161.35,318.82c0,2.69-2.18,4.88-4.88,4.88c-2.69,0-4.88-2.18-4.88-4.88c0-2.69,2.18-4.88,4.88-4.88
		C159.17,313.94,161.35,316.13,161.35,318.82z"/>
	<path class="st30" d="M290.79,288.41c0,2.39-1.94,4.32-4.32,4.32c-2.39,0-4.32-1.94-4.32-4.32s1.94-4.32,4.32-4.32
		C288.85,284.08,290.79,286.02,290.79,288.41z"/>
	
		<linearGradient id="SVGID_15_" gradientUnits="userSpaceOnUse" x1="-6648.5967" y1="318.2649" x2="-6561.3442" y2="318.2649" gradientTransform="matrix(-1 0 0 1 -6383.3735 0)">
		<stop  offset="0.2139" style="stop-color:#F3F4F5"/>
		<stop  offset="0.7933" style="stop-color:#E9EAED"/>
		<stop  offset="1" style="stop-color:#E4E5E9"/>
	</linearGradient>
	<path class="st47" d="M189.85,344.58c1.47,0,2.82-0.33,3.88-0.94l69.14-39.92c1.49-0.86,2.34-2.24,2.35-3.78
		c0-1.67-1.01-3.21-2.77-4.23l-4.45-2.57c-1.32-0.76-2.98-1.18-4.66-1.18c-1.47,0-2.82,0.33-3.88,0.94l-69.14,39.92
		c-1.49,0.86-2.35,2.24-2.34,3.78c0,1.67,1.01,3.21,2.77,4.23l4.45,2.57C186.52,344.16,188.17,344.58,189.85,344.58z"/>
	<g>
		<g>
			<path class="st48" d="M264.25,196.55l-9.95-5.74l0,0c-18.83,14.34-27.27,18.92-35.72,21.19c-8.45,7.48-22.89,16.11-41.72,23.51v0
				v40.84c0,16.48,6.5,24.75,14.18,28.77l9.94,5.74l-0.55-2.7c8.09,1.32,18.14,1.48,18.14,1.48c0.01-0.01,35.72-37.79,35.72-78v-24
				L264.25,196.55z"/>
			<path class="st49" d="M176.87,235.51l9.95,5.74l24.31-4.09l17.41-19.43l-9.95-5.74C210.14,219.48,195.7,228.11,176.87,235.51
				L176.87,235.51z"/>
			<path class="st50" d="M263.17,195.92l-8.87-5.12l0,0c-18.83,14.34-27.27,18.92-35.72,21.19l0,0l9.95,5.74l21.31-0.04l14.41-21.16
				L263.17,195.92z"/>
			<path class="st51" d="M228.54,217.75c-8.45,7.48-22.89,16.11-41.72,23.51v40.85c0,40.21,41.71,33.29,41.72,33.29
				c0.01-0.01,35.72-37.79,35.72-78v-40.85C245.43,210.89,236.99,215.47,228.54,217.75z"/>
			<path class="st51" d="M228.74,310.1c-3.32,0.42-9.85,0.83-16.29-1.11c-11.65-3.52-20.76-14.7-20.76-29.61v-33.91
				c2.74-1.33,5.43-2.75,8.05-4.26c11.16-6.45,22.74-11.79,29-17.32c6.26-1.7,11.43-6.02,22.59-12.47c2.61-1.51,5.3-3.19,8.05-5.04
				v33.91c0,14.91-2.71,32.91-14.35,49.88C238.59,299.55,232.05,306.69,228.74,310.1z"/>
			<path class="st51" d="M212.45,308.99c-11.65-3.51-20.76-14.7-20.76-29.61v-33.91c2.74-1.33,5.43-2.75,8.05-4.26
				c11.16-6.45,22.74-11.79,29-17.32v86.21C225.42,310.52,218.89,310.93,212.45,308.99z"/>
		</g>
		<g>
			<g>
				<path class="st52" d="M242.65,249.3c-0.71,6.17-2.98,13.02-6.79,19.65c-3.81,6.63-8.59,12.02-13.54,15.71l-6.78,11.79
					l-7.12-4.11c-9.38-5.48-9.38-23.16,0-39.48c9.38-16.32,24.59-25.1,33.98-19.62l7.12,4.11L242.65,249.3z"/>
				<path class="st53" d="M215.54,256.97c-9.38,16.32-9.38,33.99,0,39.48c9.38,5.48,24.59-3.3,33.98-19.62
					c9.38-16.32,9.38-33.99,0-39.48C240.13,231.87,224.92,240.65,215.54,256.97z"/>
			</g>
			<g>
				<g class="st11">
					<g>
						<path class="st54" d="M226.27,283.5l2.39,1.39c-0.11-0.06-0.21-0.13-0.31-0.21l-2.39-1.39
							C226.06,283.36,226.17,283.43,226.27,283.5z"/>
					</g>
					<g>
						<path class="st55" d="M249.53,251.65l-2.39-1.39c-0.82-0.48-1.9-0.33-2.98,0.29c-1,0.58-2,1.56-2.8,2.85l2.39,1.39
							c0.8-1.29,1.8-2.27,2.8-2.85C247.63,251.32,248.71,251.18,249.53,251.65z"/>
					</g>
					<g>
						<polygon class="st55" points="243.75,254.79 241.36,253.4 230.12,271.56 232.51,272.95 						"/>
					</g>
					<g>
						<polygon class="st55" points="221.55,279.13 219.16,277.74 225.96,283.28 228.35,284.67 						"/>
					</g>
					<g>
						<path class="st55" d="M227.75,269.09l-2.39-1.39c-0.82-0.47-1.9-0.33-2.99,0.3l2.39,1.39
							C225.85,268.76,226.93,268.62,227.75,269.09z"/>
					</g>
					<g>
						<path class="st55" d="M224.76,269.39l-2.39-1.39c-0.94,0.54-1.88,1.44-2.66,2.63c-1.79,2.73-2.03,5.91-0.55,7.11l2.39,1.39
							c-1.48-1.2-1.24-4.38,0.55-7.11C222.88,270.83,223.82,269.93,224.76,269.39z"/>
					</g>
					<g>
						<path class="st0" d="M224.76,269.39c-0.94,0.54-1.88,1.44-2.66,2.63c-1.79,2.73-2.03,5.91-0.55,7.11l6.8,5.54
							c0.99,0.8,2.4,0.69,3.82-0.13c1.17-0.68,2.35-1.83,3.29-3.36l13.91-22.46c1.72-2.77,1.85-5.9,0.3-6.98
							c-0.83-0.58-1.98-0.46-3.13,0.2c-1,0.58-2,1.56-2.8,2.85l-11.24,18.15l-4.51-3.68C227.17,268.6,225.97,268.69,224.76,269.39z"
							/>
					</g>
				</g>
			</g>
		</g>
	</g>
	<g>
		<g class="st11">
			<g>
				<path class="st56" d="M42.56,77.67l1.4,0.82c-0.06-0.04-0.12-0.08-0.18-0.12l-1.4-0.82C42.44,77.59,42.5,77.64,42.56,77.67z"/>
			</g>
			<g>
				<path class="st56" d="M55.76,59.71l-1.4-0.82c-0.48-0.28-1.12-0.19-1.75,0.17c-0.59,0.34-1.17,0.92-1.64,1.67l1.4,0.82
					c0.47-0.76,1.06-1.33,1.64-1.67C54.65,59.51,55.28,59.43,55.76,59.71z"/>
			</g>
			<g>
				<polygon class="st56" points="52.37,61.55 50.97,60.74 44.82,70.66 46.22,71.48 				"/>
			</g>
			<g>
				<polygon class="st56" points="40.42,75.63 39.02,74.81 42.38,77.55 43.78,78.36 				"/>
			</g>
			<g>
				<path class="st56" d="M44.06,69.73l-1.4-0.82c-0.48-0.28-1.12-0.2-1.76,0.17l1.4,0.82C42.95,69.54,43.58,69.46,44.06,69.73z"/>
			</g>
			<g>
				<path class="st56" d="M42.31,69.91l-1.4-0.82c-0.55,0.32-1.1,0.85-1.56,1.55c-1.05,1.6-1.19,3.47-0.32,4.17l1.4,0.82
					c-0.87-0.7-0.73-2.57,0.32-4.17C41.2,70.76,41.76,70.23,42.31,69.91z"/>
			</g>
			<g>
				<path class="st57" d="M42.31,69.91c-0.55,0.32-1.1,0.85-1.56,1.55c-1.05,1.6-1.19,3.47-0.32,4.17l3.36,2.74
					c0.58,0.47,1.41,0.4,2.24-0.08c0.69-0.4,1.38-1.08,1.93-1.97l7.71-12.45c1.01-1.63,1.09-3.46,0.18-4.1
					c-0.49-0.34-1.16-0.27-1.84,0.12c-0.59,0.34-1.17,0.92-1.64,1.67l-6.15,9.93l-2.01-1.64C43.72,69.44,43.02,69.5,42.31,69.91z"/>
			</g>
		</g>
		<g class="st58">
			<path class="st56" d="M42.56,96.34l1.4,0.82c-0.06-0.04-0.12-0.08-0.18-0.12l-1.4-0.82C42.44,96.26,42.5,96.3,42.56,96.34z"/>
			<path class="st56" d="M55.76,78.38l-1.4-0.82c-0.48-0.28-1.12-0.19-1.75,0.17c-0.59,0.34-1.17,0.92-1.64,1.67l1.4,0.82
				c0.47-0.76,1.06-1.33,1.64-1.67C54.65,78.18,55.28,78.1,55.76,78.38z"/>
			<polygon class="st56" points="52.37,80.22 50.97,79.41 44.82,89.33 46.22,90.15 			"/>
			<polygon class="st56" points="40.42,94.3 39.02,93.48 42.38,96.22 43.78,97.03 			"/>
			<path class="st56" d="M44.06,88.4l-1.4-0.82c-0.48-0.28-1.12-0.2-1.76,0.17l1.4,0.82C42.95,88.21,43.58,88.12,44.06,88.4z"/>
			<path class="st56" d="M42.31,88.58l-1.4-0.82c-0.55,0.32-1.1,0.85-1.56,1.55c-1.05,1.6-1.19,3.47-0.32,4.17l1.4,0.82
				c-0.87-0.7-0.73-2.57,0.32-4.17C41.2,89.42,41.76,88.89,42.31,88.58z"/>
			<path class="st57" d="M42.31,88.58c-0.55,0.32-1.1,0.85-1.56,1.55c-1.05,1.6-1.19,3.47-0.32,4.17l3.36,2.74
				c0.58,0.47,1.41,0.4,2.24-0.08c0.69-0.4,1.38-1.08,1.93-1.97l7.71-12.45c1.01-1.63,1.09-3.46,0.18-4.1
				c-0.49-0.34-1.16-0.27-1.84,0.12c-0.59,0.34-1.17,0.92-1.64,1.67l-6.15,9.93l-2.01-1.64C43.72,88.11,43.02,88.17,42.31,88.58z"/>
		</g>
		<g class="st59">
			<path class="st56" d="M42.56,115.01l1.4,0.82c-0.06-0.04-0.12-0.08-0.18-0.12l-1.4-0.82C42.44,114.93,42.5,114.97,42.56,115.01z"
				/>
			<path class="st56" d="M55.76,97.05l-1.4-0.82c-0.48-0.28-1.12-0.19-1.75,0.17c-0.59,0.34-1.17,0.92-1.64,1.67l1.4,0.82
				c0.47-0.76,1.06-1.33,1.64-1.67C54.65,96.85,55.28,96.77,55.76,97.05z"/>
			<polygon class="st56" points="52.37,98.89 50.97,98.07 44.82,108 46.22,108.82 			"/>
			<polygon class="st56" points="40.42,112.96 39.02,112.15 42.38,114.89 43.78,115.7 			"/>
			<path class="st56" d="M44.06,107.07l-1.4-0.82c-0.48-0.28-1.12-0.2-1.76,0.17l1.4,0.82C42.95,106.88,43.58,106.79,44.06,107.07z"
				/>
			<path class="st56" d="M42.31,107.24l-1.4-0.82c-0.55,0.32-1.1,0.85-1.56,1.55c-1.05,1.6-1.19,3.47-0.32,4.17l1.4,0.82
				c-0.87-0.7-0.73-2.57,0.32-4.17C41.2,108.09,41.76,107.56,42.31,107.24z"/>
			<path class="st57" d="M42.31,107.24c-0.55,0.32-1.1,0.85-1.56,1.55c-1.05,1.6-1.19,3.47-0.32,4.17l3.36,2.74
				c0.58,0.47,1.41,0.4,2.24-0.08c0.69-0.4,1.38-1.08,1.93-1.97l7.71-12.45c1.01-1.63,1.09-3.46,0.18-4.1
				c-0.49-0.34-1.16-0.27-1.84,0.12c-0.59,0.34-1.17,0.92-1.64,1.67l-6.15,9.93l-2.01-1.64C43.72,106.78,43.02,106.83,42.31,107.24z
				"/>
		</g>
		<g class="st60">
			<g class="st11">
				<g>
					<path class="st56" d="M42.56,133.68l1.4,0.82c-0.06-0.04-0.12-0.08-0.18-0.12l-1.4-0.82C42.44,133.6,42.5,133.64,42.56,133.68z
						"/>
				</g>
				<g>
					<path class="st56" d="M55.76,115.71l-1.4-0.82c-0.48-0.28-1.12-0.19-1.75,0.17c-0.59,0.34-1.17,0.92-1.64,1.67l1.4,0.82
						c0.47-0.76,1.06-1.33,1.64-1.67C54.65,115.52,55.28,115.43,55.76,115.71z"/>
				</g>
				<g>
					<polygon class="st56" points="52.37,117.56 50.97,116.74 44.82,126.67 46.22,127.48 					"/>
				</g>
				<g>
					<polygon class="st56" points="40.42,131.63 39.02,130.82 42.38,133.55 43.78,134.37 					"/>
				</g>
				<g>
					<path class="st56" d="M44.06,125.74l-1.4-0.82c-0.48-0.28-1.12-0.2-1.76,0.17l1.4,0.82C42.95,125.54,43.58,125.46,44.06,125.74
						z"/>
				</g>
				<g>
					<path class="st56" d="M42.31,125.91l-1.4-0.82c-0.55,0.32-1.1,0.85-1.56,1.55c-1.05,1.6-1.19,3.47-0.32,4.17l1.4,0.82
						c-0.87-0.7-0.73-2.57,0.32-4.17C41.2,126.76,41.76,126.23,42.31,125.91z"/>
				</g>
				<g>
					<path class="st57" d="M42.31,125.91c-0.55,0.32-1.1,0.85-1.56,1.55c-1.05,1.6-1.19,3.47-0.32,4.17l3.36,2.74
						c0.58,0.47,1.41,0.4,2.24-0.08c0.69-0.4,1.38-1.08,1.93-1.97l7.71-12.45c1.01-1.63,1.09-3.46,0.18-4.1
						c-0.49-0.34-1.16-0.27-1.84,0.12c-0.59,0.34-1.17,0.92-1.64,1.67l-6.15,9.93l-2.01-1.64C43.72,125.45,43.02,125.5,42.31,125.91
						z"/>
				</g>
			</g>
		</g>
	</g>
	<g>
		<g class="st11">
			<g>
				<path class="st56" d="M404.39,94.49l1.4,0.82c-0.06-0.04-0.12-0.08-0.18-0.12l-1.4-0.82C404.26,94.41,404.32,94.46,404.39,94.49
					z"/>
			</g>
			<g>
				<path class="st56" d="M417.59,76.53l-1.4-0.82c-0.48-0.28-1.12-0.19-1.75,0.17c-0.59,0.34-1.17,0.92-1.64,1.67l1.4,0.82
					c0.47-0.76,1.06-1.33,1.64-1.67C416.47,76.33,417.11,76.25,417.59,76.53z"/>
			</g>
			<g>
				<polygon class="st56" points="414.2,78.37 412.79,77.56 406.65,87.48 408.05,88.3 				"/>
			</g>
			<g>
				<polygon class="st56" points="402.25,92.45 400.85,91.63 404.21,94.37 405.61,95.18 				"/>
			</g>
			<g>
				<path class="st56" d="M405.89,86.55l-1.4-0.82c-0.48-0.28-1.12-0.2-1.76,0.17l1.4,0.82C404.77,86.36,405.41,86.27,405.89,86.55z
					"/>
			</g>
			<g>
				<path class="st56" d="M404.13,86.73l-1.4-0.82c-0.55,0.32-1.1,0.85-1.56,1.55c-1.05,1.6-1.19,3.47-0.32,4.17l1.4,0.82
					c-0.87-0.7-0.73-2.57,0.32-4.17C403.03,87.57,403.58,87.04,404.13,86.73z"/>
			</g>
			<g>
				<path class="st57" d="M404.13,86.73c-0.55,0.32-1.1,0.85-1.56,1.55c-1.05,1.6-1.19,3.47-0.32,4.17l3.36,2.74
					c0.58,0.47,1.41,0.4,2.24-0.08c0.69-0.4,1.38-1.08,1.93-1.97l7.71-12.45c1.01-1.63,1.09-3.46,0.18-4.1
					c-0.49-0.34-1.16-0.27-1.84,0.12c-0.59,0.34-1.17,0.92-1.64,1.67l-6.15,9.93l-2.01-1.64C405.55,86.26,404.84,86.32,404.13,86.73
					z"/>
			</g>
		</g>
		<g class="st58">
			<path class="st56" d="M404.39,113.16l1.4,0.82c-0.06-0.04-0.12-0.08-0.18-0.12l-1.4-0.82
				C404.26,113.08,404.32,113.12,404.39,113.16z"/>
			<path class="st56" d="M417.59,95.2l-1.4-0.82c-0.48-0.28-1.12-0.19-1.75,0.17c-0.59,0.34-1.17,0.92-1.64,1.67l1.4,0.82
				c0.47-0.76,1.06-1.33,1.64-1.67C416.47,95,417.11,94.92,417.59,95.2z"/>
			<polygon class="st56" points="414.2,97.04 412.79,96.23 406.65,106.15 408.05,106.97 			"/>
			<polygon class="st56" points="402.25,111.11 400.85,110.3 404.21,113.04 405.61,113.85 			"/>
			<path class="st56" d="M405.89,105.22l-1.4-0.82c-0.48-0.28-1.12-0.2-1.76,0.17l1.4,0.82
				C404.77,105.03,405.41,104.94,405.89,105.22z"/>
			<path class="st56" d="M404.13,105.4l-1.4-0.82c-0.55,0.32-1.1,0.85-1.56,1.55c-1.05,1.6-1.19,3.47-0.32,4.17l1.4,0.82
				c-0.87-0.7-0.73-2.57,0.32-4.17C403.03,106.24,403.58,105.71,404.13,105.4z"/>
			<path class="st57" d="M404.13,105.4c-0.55,0.32-1.1,0.85-1.56,1.55c-1.05,1.6-1.19,3.47-0.32,4.17l3.36,2.74
				c0.58,0.47,1.41,0.4,2.24-0.08c0.69-0.4,1.38-1.08,1.93-1.97l7.71-12.45c1.01-1.63,1.09-3.46,0.18-4.1
				c-0.49-0.34-1.16-0.27-1.84,0.12c-0.59,0.34-1.17,0.92-1.64,1.67l-6.15,9.93l-2.01-1.64
				C405.55,104.93,404.84,104.99,404.13,105.4z"/>
		</g>
		<g class="st59">
			<path class="st56" d="M404.39,131.83l1.4,0.82c-0.06-0.04-0.12-0.08-0.18-0.12l-1.4-0.82
				C404.26,131.75,404.32,131.79,404.39,131.83z"/>
			<path class="st56" d="M417.59,113.86l-1.4-0.82c-0.48-0.28-1.12-0.19-1.75,0.17c-0.59,0.34-1.17,0.92-1.64,1.67l1.4,0.82
				c0.47-0.76,1.06-1.33,1.64-1.67C416.47,113.67,417.11,113.59,417.59,113.86z"/>
			<polygon class="st56" points="414.2,115.71 412.79,114.89 406.65,124.82 408.05,125.64 			"/>
			<polygon class="st56" points="402.25,129.78 400.85,128.97 404.21,131.7 405.61,132.52 			"/>
			<path class="st56" d="M405.89,123.89l-1.4-0.82c-0.48-0.28-1.12-0.2-1.76,0.17l1.4,0.82
				C404.77,123.69,405.41,123.61,405.89,123.89z"/>
			<path class="st56" d="M404.13,124.06l-1.4-0.82c-0.55,0.32-1.1,0.85-1.56,1.55c-1.05,1.6-1.19,3.47-0.32,4.17l1.4,0.82
				c-0.87-0.7-0.73-2.57,0.32-4.17C403.03,124.91,403.58,124.38,404.13,124.06z"/>
			<path class="st57" d="M404.13,124.06c-0.55,0.32-1.1,0.85-1.56,1.55c-1.05,1.6-1.19,3.47-0.32,4.17l3.36,2.74
				c0.58,0.47,1.41,0.4,2.24-0.08c0.69-0.4,1.38-1.08,1.93-1.97l7.71-12.45c1.01-1.63,1.09-3.46,0.18-4.1
				c-0.49-0.34-1.16-0.27-1.84,0.12c-0.59,0.34-1.17,0.92-1.64,1.67l-6.15,9.93l-2.01-1.64
				C405.55,123.6,404.84,123.65,404.13,124.06z"/>
		</g>
		<g class="st60">
			<g class="st11">
				<g>
					<path class="st56" d="M404.39,150.5l1.4,0.82c-0.06-0.04-0.12-0.08-0.18-0.12l-1.4-0.82
						C404.26,150.42,404.32,150.46,404.39,150.5z"/>
				</g>
				<g>
					<path class="st56" d="M417.59,132.53l-1.4-0.82c-0.48-0.28-1.12-0.19-1.75,0.17c-0.59,0.34-1.17,0.92-1.64,1.67l1.4,0.82
						c0.47-0.76,1.06-1.33,1.64-1.67C416.47,132.34,417.11,132.25,417.59,132.53z"/>
				</g>
				<g>
					<polygon class="st56" points="414.2,134.38 412.79,133.56 406.65,143.49 408.05,144.3 					"/>
				</g>
				<g>
					<polygon class="st56" points="402.25,148.45 400.85,147.64 404.21,150.37 405.61,151.19 					"/>
				</g>
				<g>
					<path class="st56" d="M405.89,142.56l-1.4-0.82c-0.48-0.28-1.12-0.2-1.76,0.17l1.4,0.82
						C404.77,142.36,405.41,142.28,405.89,142.56z"/>
				</g>
				<g>
					<path class="st56" d="M404.13,142.73l-1.4-0.82c-0.55,0.32-1.1,0.85-1.56,1.55c-1.05,1.6-1.19,3.47-0.32,4.17l1.4,0.82
						c-0.87-0.7-0.73-2.57,0.32-4.17C403.03,143.58,403.58,143.05,404.13,142.73z"/>
				</g>
				<g>
					<path class="st57" d="M404.13,142.73c-0.55,0.32-1.1,0.85-1.56,1.55c-1.05,1.6-1.19,3.47-0.32,4.17l3.36,2.74
						c0.58,0.47,1.41,0.4,2.24-0.08c0.69-0.4,1.38-1.08,1.93-1.97l7.71-12.45c1.01-1.63,1.09-3.46,0.18-4.1
						c-0.49-0.34-1.16-0.27-1.84,0.12c-0.59,0.34-1.17,0.92-1.64,1.67l-6.15,9.93l-2.01-1.64
						C405.55,142.27,404.84,142.32,404.13,142.73z"/>
				</g>
			</g>
		</g>
	</g>
</g>
</svg>
